<svg width="14" height="14" viewBox="0 0 14 14" fill="none" xmlns="http://www.w3.org/2000/svg">
<path d="M12.9275 0.337252L12.9981 0.333252L13.0848 0.338585L13.1448 0.349252L13.2268 0.372585L13.2981 0.403252L13.3648 0.441252L13.4248 0.485919L13.4794 0.535919L13.5141 0.575252L13.5688 0.652585L13.6034 0.716585C13.6346 0.783252 13.6546 0.853474 13.6635 0.927252L13.6668 0.997919C13.6668 1.04814 13.6614 1.09703 13.6508 1.14459L13.6274 1.22659L9.27278 13.2779C9.19023 13.4576 9.05785 13.6099 8.89134 13.7166C8.72484 13.8233 8.53121 13.88 8.33345 13.8799C8.15537 13.8803 7.98023 13.8346 7.82499 13.7474C7.66976 13.6601 7.5397 13.5342 7.44745 13.3819L7.40412 13.2973L5.16945 8.82925L0.722784 6.60525C0.558251 6.53 0.416359 6.41287 0.311299 6.26558C0.206239 6.11828 0.141693 5.94599 0.124117 5.76592L0.120117 5.66659C0.120117 5.29325 0.320784 4.95192 0.680784 4.75325L0.774117 4.70659L12.7854 0.369252L12.8561 0.349252L12.9275 0.337252Z" fill="#7660FD"/>
</svg>
